<?xml version="1.0"?>
<!--Icons from directory ""-->
<svg xmlns="http://www.w3.org/2000/svg" width="36" height="288" viewBox="0 0 36 288"><svg width="36" height="36" viewBox="-2 -2 36 36" id="a" y="0"><svg data-name="Layer 1" viewBox="0 0 9.09 10.44" width="32" height="32"><path d="M0 .01h1.62v10.43H0zm9.09 1.13L7.95 0 2.73 5.22l5.22 5.23L9.09 9.3 5.02 5.22l4.07-4.08z" fill="#333132"/></svg></svg><svg width="36" height="36" viewBox="-2 -2 36 36" id="b" y="36"><svg data-name="Layer 1" viewBox="0 0 7.96 13.06" width="32" height="32"><path fill="#404042" d="M7.96 1.43L6.53 0 0 6.53l6.53 6.53 1.43-1.43-5.1-5.1 5.1-5.1z"/></svg></svg><svg width="36" height="36" viewBox="-2 -2 36 36" id="c" y="72"><svg data-name="Layer 1" viewBox="0 0 7.96 13.06" width="32" height="32"><path fill="#404042" d="M0 11.63l1.43 1.43 6.53-6.53L1.43 0 0 1.43l5.1 5.1-5.1 5.1z"/></svg></svg><svg width="36" height="36" viewBox="-2 -2 36 36" id="d" y="108"><svg id="d-b_last_page" data-name="Layer 1" viewBox="0 0 11.37 13.06" width="32" height="32"><defs><style>.cls-1{fill:#404042}</style></defs><path class="cls-1" transform="rotate(180 10.91 6.825)" d="M10.45.61h2.02v13.03h-2.02z"/><path class="cls-1" d="M0 11.63l1.43 1.43 6.53-6.53L1.43 0 0 1.43l5.1 5.1-5.1 5.1z"/></svg></svg><svg width="36" height="36" viewBox="-2 -2 36 36" id="e" y="144"><svg data-name="Layer 1" viewBox="0 0 9.09 10.44" width="32" height="32"><path d="M0 .01h1.62v10.43H0zm9.09 1.13L7.95 0 2.73 5.22l5.22 5.23L9.09 9.3 5.02 5.22l4.07-4.08z" fill="#939598"/></svg></svg><svg width="36" height="36" viewBox="-2 -2 36 36" id="f" y="180"><svg data-name="Layer 1" viewBox="0 0 7.96 13.06" width="32" height="32"><path fill="#939598" d="M7.96 1.43L6.53 0 0 6.53l6.53 6.53 1.43-1.43-5.1-5.1 5.1-5.1z"/></svg></svg><svg width="36" height="36" viewBox="-2 -2 36 36" id="g" y="216"><svg data-name="Layer 1" viewBox="0 0 7.96 13.06" width="32" height="32"><path fill="#939598" d="M0 11.63l1.43 1.43 6.53-6.53L1.43 0 0 1.43l5.1 5.1-5.1 5.1z"/></svg></svg><svg width="36" height="36" viewBox="-2 -2 36 36" id="h" y="252"><svg id="h-g_last_page" data-name="Layer 1" viewBox="0 0 11.37 13.06" width="32" height="32"><defs><style>.cls-1{fill:#939598}</style></defs><path class="cls-1" transform="rotate(180 10.91 6.825)" d="M10.45.61h2.02v13.03h-2.02z"/><path class="cls-1" d="M0 11.63l1.43 1.43 6.53-6.53L1.43 0 0 1.43l5.1 5.1-5.1 5.1z"/></svg></svg></svg>
